<?xml version="1.0" standalone="no"?>
<!DOCTYPE svg PUBLIC "-//W3C//DTD SVG 20010904//EN"
 "http://www.w3.org/TR/2001/REC-SVG-20010904/DTD/svg10.dtd">
<svg version="1.0" xmlns="http://www.w3.org/2000/svg"
 width="256.000000pt" height="256.000000pt" viewBox="0 0 256.000000 256.000000"
 preserveAspectRatio="xMidYMid meet">

<g transform="translate(0.000000,256.000000) scale(0.100000,-0.100000)"
fill="#000000" stroke="none">
<path d="M699 1917 l-566 -602 264 -3 263 -2 0 -615 0 -615 605 0 605 0 0 615
0 615 271 2 270 3 -283 300 c-620 658 -850 900 -856 902 -4 1 -262 -269 -573
-600z m982 148 c222 -236 468 -497 546 -580 l141 -150 -259 -3 -259 -2 0 -615
0 -615 -583 0 -584 0 -6 323 c-4 177 -7 454 -7 614 l0 293 -250 2 -250 3 548
582 c301 320 550 581 553 580 4 -1 188 -195 410 -432z"/>
<path d="M1435 1593 c-297 -27 -638 -111 -840 -208 l-70 -33 93 -1 92 -1 0
-610 0 -610 50 0 c56 0 48 -18 70 155 21 173 99 413 181 561 175 316 453 574
769 716 l85 38 -195 -2 c-107 -1 -213 -3 -235 -5z"/>
</g>
</svg>
